<?xml version="1.0" encoding="iso-8859-1"?>
<!-- Generator: Adobe Illustrator 19.0.0, SVG Export Plug-In . SVG Version: 6.00 Build 0)  -->
<svg version="1.1" id="Layer_1" xmlns="http://www.w3.org/2000/svg" xmlns:xlink="http://www.w3.org/1999/xlink" x="0px" y="0px"
	 viewBox="0 0 511.999 511.999" style="enable-background:new 0 0 511.999 511.999;" xml:space="preserve">
<g>
	<g>
		<path d="M206.006,167.893c-4.653,0-8.423,3.771-8.423,8.423v13.472c0,4.652,3.77,8.423,8.423,8.423
			c4.653,0,8.423-3.771,8.423-8.423v-13.472C214.428,171.664,210.658,167.893,206.006,167.893z"/>
	</g>
</g>
<g>
	<g>
		<path d="M331.205,137.792c-13.901-13.902-36.522-13.902-50.424,0c-3.29,3.289-3.29,8.623-0.001,11.912
			c3.289,3.288,8.623,3.289,11.911,0c7.334-7.335,19.269-7.335,26.603,0c1.644,1.644,3.8,2.467,5.955,2.467s4.311-0.822,5.957-2.467
			C334.496,146.415,334.496,141.082,331.205,137.792z"/>
	</g>
</g>
<g>
	<g>
		<path d="M231.219,137.792c-6.735-6.735-15.689-10.443-25.212-10.443c-9.524,0-18.478,3.708-25.213,10.443
			c-3.289,3.289-3.289,8.623,0.001,11.912c3.288,3.289,8.621,3.288,11.911,0c3.552-3.553,8.276-5.51,13.301-5.51
			c5.024,0,9.748,1.956,13.3,5.51c1.645,1.645,3.8,2.467,5.957,2.467c2.155,0,4.311-0.822,5.955-2.467
			C234.508,146.415,234.508,141.082,231.219,137.792z"/>
	</g>
</g>
<g>
	<g>
		<path d="M305.993,167.893c-4.653,0-8.423,3.771-8.423,8.423v13.472c0,4.652,3.77,8.423,8.423,8.423s8.423-3.771,8.423-8.423
			v-13.472C314.416,171.664,310.646,167.893,305.993,167.893z"/>
	</g>
</g>
<g>
	<g>
		<path d="M283.793,244.199c-3.289-3.289-8.622-3.289-11.912,0c-4.242,4.243-9.883,6.579-15.882,6.579
			c-5.999,0-11.639-2.336-15.882-6.579c-3.289-3.288-8.621-3.289-11.912,0c-3.289,3.289-3.289,8.623,0,11.912
			c7.424,7.424,17.295,11.512,27.794,11.512c10.499,0,20.37-4.089,27.794-11.512C287.083,252.822,287.083,247.489,283.793,244.199z"
			/>
	</g>
</g>
<g>
	<g>
		<path d="M264.423,169.016c-4.653,0-8.423,3.771-8.423,8.423v25.268h-8.423c-4.653,0-8.423,3.771-8.423,8.423
			c0,4.652,3.77,8.423,8.423,8.423h16.845c4.653,0,8.423-3.771,8.423-8.423v-33.691
			C272.846,172.787,269.076,169.016,264.423,169.016z"/>
	</g>
</g>
<g>
	<g>
		<path d="M407.816,162.641c0-17.81-13.523-32.517-30.843-34.412l-1.946-20.14c-2.611-27.047-14.504-52.644-33.488-72.077
			c-3.252-3.328-8.583-3.39-11.911-0.139s-3.39,8.583-0.139,11.911c13.956,14.285,23.431,32.452,27.287,51.957
			c-12.735-6.926-26.699-4.682-42.056-2.202c-10.089,1.63-21.526,3.477-35.133,3.477c-28.948,0-54.499-14.767-67.154-23.568
			c-6.369-4.431-10.132-7.796-10.29-7.938c-3.444-3.124-8.77-2.868-11.894,0.574c-3.129,3.443-2.874,8.77,0.57,11.897
			c0.097,0.088,1.368,1.235,3.634,3.056c-14.958,12.657-30.462,19.459-40.504,22.879c2.831-24.783,14.481-47.595,32.98-64.393
			c18.945-17.203,43.477-26.678,69.074-26.678c18.578,0,36.793,5.02,52.673,14.517c3.991,2.386,9.164,1.088,11.551-2.905
			c2.388-3.992,1.087-9.164-2.905-11.551C298.829,5.846,277.627,0,256.004,0c-29.793,0-58.346,11.028-80.399,31.053
			c-22.053,20.025-35.774,47.384-38.638,77.041l-1.946,20.136c-17.317,1.892-30.838,16.601-30.838,34.412
			c0,15.582,10.221,28.781,24.457,33.116c-1.335,31.089,13.087,61.249,38.41,79.64l4.226,3.069
			c-30.778,13.101-51.721,43.661-51.721,78.229v146.881c0,4.652,3.77,8.423,8.423,8.423h256.051c4.653,0,8.423-3.771,8.423-8.423
			v-146.88c0-16.731-4.859-32.924-14.052-46.828c-2.565-3.88-7.79-4.946-11.672-2.381c-3.88,2.565-4.946,7.79-2.38,11.672
			c7.365,11.139,11.257,24.119,11.257,37.537v138.458h-34.258V357.584c0-4.652-3.77-8.423-8.423-8.423s-8.423,3.771-8.423,8.423
			v42.114h-15.492c-4.653,0-8.423,3.771-8.423,8.423c0,4.652,3.77,8.423,8.423,8.423h15.492v78.612h-48.686l9.691-97.432
			c0.186-1.875-0.26-3.76-1.272-5.351l-18.048-28.401l13.588-18.677l21.336,15.152c1.448,1.029,3.157,1.555,4.878,1.555
			c1.115,0,2.235-0.221,3.295-0.672c2.692-1.144,4.599-3.605,5.033-6.498l9.659-64.196l0.082-0.06
			c7.677,1.916,14.901,5.139,21.516,9.613c1.446,0.978,3.087,1.446,4.711,1.446c2.702,0,5.357-1.298,6.984-3.705
			c2.607-3.853,1.596-9.09-2.257-11.696c-4.539-3.07-9.313-5.656-14.282-7.771l4.224-3.068
			c25.316-18.394,39.734-48.555,38.397-79.641C397.593,191.42,407.816,178.222,407.816,162.641z M130.192,178.202
			c-5.482-3.031-9.164-8.861-9.164-15.561c0-7.891,5.172-14.589,12.301-16.905L130.192,178.202z M187.492,495.157V357.586
			c0-4.652-3.77-8.423-8.423-8.423s-8.423,3.771-8.423,8.423v137.571H136.4v-138.46h0.001c0-31.356,21.477-58.602,51.553-66.114
			l0.075,0.055l9.659,64.196c0.436,2.893,2.342,5.353,5.033,6.498c2.694,1.145,5.787,0.81,8.172-0.884l21.336-15.152l13.589,18.678
			l-18.039,28.403c-1.01,1.591-1.458,3.475-1.271,5.349l9.692,97.432H187.492z M207.156,304.532l5.994,4.354
			c7.642,5.553,16.069,9.437,24.811,11.677l-25.652,18.219L207.156,304.532z M268.458,398.951l-9.569,96.203h-5.759l-9.569-96.204
			l12.445-19.595L268.458,398.951z M245.966,335.541l10.038-7.129l10.038,7.129l-10.038,13.796L245.966,335.541z M299.699,338.782
			l-25.656-18.22c8.742-2.242,17.171-6.124,24.813-11.675l5.995-4.355L299.699,338.782z M335.055,261.769l-46.099,33.489
			c-19.714,14.319-46.2,14.32-65.905,0l-46.101-33.49c-21.851-15.87-33.81-42.429-31.212-69.313l6.411-66.343
			c11.007-2.973,34.416-11.178,56.397-31.027c15.531,9.865,41.503,22.776,71.041,22.776c14.959,0,27.633-2.047,37.819-3.693
			c21.948-3.545,31.426-5.075,42.397,11.504l6.454,66.782C368.855,219.338,356.899,245.897,335.055,261.769z M381.802,178.202
			l-3.137-32.463c7.132,2.317,12.306,9.015,12.306,16.904C390.971,169.34,387.287,175.17,381.802,178.202z"/>
	</g>
</g>
<g>
</g>
<g>
</g>
<g>
</g>
<g>
</g>
<g>
</g>
<g>
</g>
<g>
</g>
<g>
</g>
<g>
</g>
<g>
</g>
<g>
</g>
<g>
</g>
<g>
</g>
<g>
</g>
<g>
</g>
</svg>
